<?xml version="1.0" standalone="no"?><!DOCTYPE svg PUBLIC "-//W3C//DTD SVG 1.1//EN" "http://www.w3.org/Graphics/SVG/1.1/DTD/svg11.dtd"><svg t="1672138641525" class="icon" viewBox="0 0 1024 1024" version="1.1" xmlns="http://www.w3.org/2000/svg" p-id="1294" width="32" height="32" xmlns:xlink="http://www.w3.org/1999/xlink"><path d="M992.213333 220.8c-18.346667-10.24-53.12-15.36-105.386666 17.066667C840.533333 266.666667 768 314.88 725.333333 343.466667V256c0-47.146667-30.293333-93.226667-77.226666-93.226667h-554.666667A99.84 99.84 0 0 0 0 256v512c0 47.146667 46.293333 77.44 93.44 77.44h554.666667A72.32 72.32 0 0 0 725.333333 768v-87.466667c42.666667 28.586667 117.12 76.8 163.413334 106.666667a144.213333 144.213333 0 0 0 73.6 23.466667 52.48 52.48 0 0 0 28.8-7.68c16.426667-8.96 32.853333-29.866667 32.853333-77.653334V298.666667c0-47.786667-15.573333-68.693333-31.786667-77.866667zM682.666667 768a30.293333 30.293333 0 0 1-34.56 34.773333h-554.666667C69.76 802.773333 42.666667 791.466667 42.666667 768V256a57.6 57.6 0 0 1 50.773333-50.56h554.666667C671.573333 205.44 682.666667 232.533333 682.666667 256v512z m298.666666-42.666667c0 21.333333-1.066667 35.626667-10.026666 40.533334s-35.84 0-62.08-16C853.333333 714.666667 768 649.386667 725.333333 628.693333V395.306667c42.666667-21.333333 129.28-85.333333 186.026667-121.173334 26.24-16.426667 46.72-21.333333 58.24-16S981.333333 277.333333 981.333333 298.666667v426.666666z" fill="#1296db" p-id="1295"></path><path d="M184.27151386 353.95085963m-67.03317242 0a67.03317398 67.03317398 0 1 0 134.06634641 0 67.03317398 67.03317398 0 1 0-134.06634641 0Z" fill="#d81e06" p-id="1296"></path></svg>